<svg width="40" height="40" viewBox="0 0 40 40" fill="none" xmlns="http://www.w3.org/2000/svg">
<path d="M35.3679 12.3389L24.9194 11.3698L20.7689 1.73208C20.4783 1.05724 19.5215 1.05724 19.2309 1.73208L15.0805 11.3697L4.63196 12.3389C3.90032 12.4067 3.6047 13.3167 4.15665 13.8016L12.0401 20.7271L9.73298 30.9637C9.57141 31.6805 10.3456 32.2429 10.9773 31.8678L19.9999 26.5103L29.0226 31.8678C29.6544 32.2429 30.4284 31.6805 30.2669 30.9637L27.9597 20.7271L35.8432 13.8016C36.3952 13.3167 36.0995 12.4067 35.3679 12.3389Z" fill="#FFDC64"/>
<path d="M9.31856 1.40027C9.85121 2.14012 11.3547 5.31746 12.2142 7.16918C12.3493 7.46027 11.9841 7.72324 11.7509 7.5027C10.2675 6.1002 7.73121 3.66645 7.19856 2.92652C6.77707 2.34113 6.90997 1.52488 7.49543 1.1034C8.08082 0.681915 8.89707 0.814884 9.31856 1.40027ZM30.6814 1.40027C30.1487 2.14012 28.6453 5.31746 27.7857 7.16918C27.6506 7.46027 28.0158 7.72324 28.249 7.5027C29.7324 6.1002 32.2686 3.66637 32.8014 2.92652C33.2229 2.34113 33.09 1.52488 32.5045 1.1034C31.9191 0.681915 31.1029 0.814884 30.6814 1.40027ZM39.0985 23.0961C38.2318 22.8134 34.7478 22.3464 32.7225 22.0902C32.4042 22.0499 32.2647 22.4778 32.5455 22.6329C34.3325 23.62 37.4218 25.2969 38.2885 25.5796C38.9743 25.8032 39.7115 25.4286 39.9352 24.7428C40.1589 24.0569 39.7843 23.3197 39.0985 23.0961ZM0.901449 23.0961C1.76817 22.8134 5.25215 22.3464 7.27739 22.0902C7.59575 22.0499 7.73528 22.4778 7.45442 22.6329C5.66746 23.62 2.57817 25.2969 1.71145 25.5796C1.02567 25.8032 0.288402 25.4286 0.0647302 24.7428C-0.158942 24.0569 0.215668 23.3197 0.901449 23.0961ZM18.7339 37.8368C18.7339 36.9251 19.3702 33.4681 19.7546 31.4632C19.815 31.148 20.265 31.148 20.3254 31.4632C20.7098 33.4681 21.3461 36.9251 21.3461 37.8368C21.3461 38.5581 20.7614 39.1429 20.04 39.1429C19.3186 39.1429 18.7339 38.5581 18.7339 37.8368Z" fill="#FFF082"/>
<path d="M22.2781 5.23677L20.7688 1.73208C20.4782 1.05724 19.5214 1.05724 19.2309 1.73208L15.0804 11.3697L4.63196 12.3389C3.90032 12.4067 3.6047 13.3167 4.15665 13.8016L12.0401 20.7271L9.73298 30.9637C9.57141 31.6805 10.3456 32.2429 10.9773 31.8678L12.1781 31.1547C14.1468 18.411 19.6813 9.05615 22.2781 5.23677Z" fill="#FFC850"/>
</svg>
