<svg width="97" height="70" viewBox="0 0 97 70" fill="none" xmlns="http://www.w3.org/2000/svg">
<path d="M3.88585 68.4854L4.00709 68.6509H3.03717C2.39055 67.8232 1.90559 66.8714 1.54186 65.754C1.17814 64.678 0.976074 63.4365 0.976074 62.1536C0.976074 60.8707 1.13773 59.7533 1.50145 58.5945C1.86517 57.4772 2.39055 56.4839 3.03717 55.6149H3.96668L3.84544 55.7804C3.23923 56.6495 2.75427 57.6841 2.39055 58.7601C2.06724 59.8361 1.86517 60.9948 1.86517 62.195C1.86517 63.3951 2.02683 64.5952 2.39055 65.6712C2.75427 66.7472 3.23923 67.7404 3.80502 68.5681L3.88585 68.4854ZM6.18942 65.5885C5.94694 65.5885 5.78529 65.5057 5.70446 65.3402C5.62363 65.1332 5.58322 64.8435 5.58322 64.3883V59.1739H6.95728V58.3048H5.58322V56.4839H4.85578L4.65371 58.3462L3.92626 58.5532V59.1739H4.65371V64.4297C4.65371 65.0919 4.73453 65.5885 4.9366 65.9195C5.13867 66.292 5.50239 66.4575 6.02777 66.4575C6.55314 66.4575 6.39149 66.4575 6.51273 66.4161C6.67438 66.4161 6.79562 66.3334 6.91687 66.2506H6.95728V65.3402L6.83604 65.4229C6.67438 65.5057 6.4319 65.5471 6.22984 65.5471L6.18942 65.5885ZM7.84638 66.3334H8.77589V58.3462H7.84638V66.3334ZM8.33134 55.3666C8.12927 55.3666 7.96762 55.4493 7.84638 55.6149C7.76555 55.739 7.68472 55.946 7.68472 56.1529C7.68472 56.3598 7.72514 56.5667 7.84638 56.6909C7.96762 56.8564 8.08886 56.8978 8.29093 56.8978C8.49299 56.8978 8.65465 56.815 8.73548 56.6909C8.8163 56.5667 8.89713 56.3598 8.89713 56.1529C8.89713 55.946 8.85672 55.7804 8.77589 55.6149C8.69506 55.4493 8.53341 55.3666 8.33134 55.3666ZM12.5343 58.1807C12.2515 58.1807 12.009 58.2635 11.7665 58.429C11.5644 58.5945 11.4028 58.8015 11.2411 59.0911C11.1603 59.2567 11.0795 59.4222 10.9986 59.6291L10.9178 58.3048H10.1499V66.292H11.0795V62.1122C11.0795 61.6156 11.1199 61.119 11.2411 60.6637C11.3624 60.2085 11.524 59.8361 11.7261 59.5464C11.9281 59.2567 12.1706 59.1325 12.4535 59.1325C12.7364 59.1325 12.6152 59.1325 12.7364 59.1325C12.8172 59.1325 12.8981 59.1739 12.9789 59.2153H13.1001L13.2618 58.2635H13.181C12.9789 58.1393 12.7364 58.0979 12.4939 58.0979L12.5343 58.1807ZM17.1819 59.0498V58.3048H13.9084V59.1739H16.1312L13.7468 65.5885V66.292H17.2223V65.4229H14.7975L17.1819 59.0084V59.0498ZM22.1124 60.0016C22.274 60.5396 22.3548 61.119 22.3548 61.7397V62.4433H18.6368C18.6368 64.5539 19.243 65.5885 20.415 65.5885C21.587 65.5885 20.9404 65.5885 21.1828 65.4643C21.4253 65.3815 21.6678 65.2574 21.9507 65.0505L22.1124 64.9263V65.9195H22.0719C21.8295 66.1264 21.5466 66.2506 21.2637 66.3334C20.9808 66.4161 20.6979 66.4575 20.3746 66.4575C19.7684 66.4575 19.243 66.292 18.8389 65.9195C18.4347 65.5471 18.1518 65.0918 17.9902 64.4711C17.8285 63.8503 17.7073 63.1468 17.7073 62.3605C17.7073 61.0776 17.9094 60.043 18.2731 59.3395C18.6772 58.5945 19.2834 58.2221 20.0917 58.2221C20.9 58.2221 21.0616 58.3876 21.3849 58.7187C21.7082 59.0498 21.9507 59.505 22.1124 60.0016ZM19.0813 59.6705C18.8389 60.0844 18.6772 60.7465 18.6368 61.6156H21.4253C21.4253 61.1604 21.3849 60.7465 21.2637 60.3327C21.1829 59.9188 21.0212 59.5878 20.8191 59.3395C20.6171 59.0911 20.3746 59.0084 20.0513 59.0084C19.728 59.0084 19.3238 59.2153 19.0409 59.6291L19.0813 59.6705ZM27.6894 59.2153C28.0936 59.8774 28.2552 60.9121 28.2552 62.2777C28.2552 63.6434 28.0532 64.7194 27.649 65.4229C27.2449 66.1265 26.6791 66.4989 25.9516 66.4989C25.2242 66.4989 25.0626 66.3334 24.7392 66.0437C24.5372 65.8368 24.3755 65.5885 24.2139 65.3402C24.2139 65.5471 24.2139 65.754 24.2139 66.0023V69.851H23.2844V58.3876H24.0522L24.133 59.5878C24.2947 59.2567 24.4968 58.967 24.6988 58.7187C25.0221 58.3876 25.4263 58.2221 25.9112 58.2221C26.6791 58.2221 27.2449 58.5532 27.649 59.2567L27.6894 59.2153ZM26.9216 59.8774C26.6791 59.3395 26.3154 59.0911 25.79 59.0911C25.2646 59.0911 24.9009 59.3395 24.6584 59.8361C24.3755 60.3741 24.2543 61.0776 24.2543 62.0294V62.6916C24.2543 63.6434 24.4159 64.3469 24.6988 64.8435C24.9817 65.3402 25.3454 65.5885 25.8304 65.5885C26.3154 65.5885 26.5983 65.3402 26.8812 64.8435C27.1641 64.3469 27.3257 63.4779 27.3257 62.2777C27.3257 61.0776 27.2045 60.4154 26.9216 59.8774ZM32.7411 58.8842C33.024 59.3395 33.1857 60.043 33.1857 60.9534V66.3334H32.4178L32.337 65.3402C32.2157 65.6298 32.0541 65.8782 31.852 66.0851C31.5691 66.3748 31.165 66.4989 30.68 66.4989C30.1951 66.4989 29.9122 66.3748 29.6293 66.1678C29.3464 65.9609 29.1847 65.6712 29.0231 65.3402C28.9018 65.0091 28.821 64.6366 28.821 64.2228C28.821 63.4365 29.0635 62.8157 29.508 62.4019C29.9526 61.988 30.5992 61.7397 31.4075 61.657H32.2157V61.0362C32.2157 60.3327 32.1349 59.7947 31.9329 59.505C31.7712 59.2153 31.4883 59.0911 31.0842 59.0911C30.68 59.0911 30.68 59.0912 30.478 59.1739C30.2355 59.2567 29.993 59.3395 29.7505 59.505H29.6697C29.6697 59.5464 29.306 58.8015 29.306 58.8015H29.3868C29.9526 58.3876 30.5588 58.2221 31.2054 58.2221C31.852 58.2221 32.4178 58.4704 32.7007 58.9256L32.7411 58.8842ZM31.5287 62.4019C30.3567 62.4846 29.7909 63.064 29.7909 64.1814C29.7909 65.2988 29.8718 65.0505 30.0738 65.2988C30.2759 65.5471 30.5184 65.6712 30.8417 65.6712C31.165 65.6712 31.65 65.4643 31.852 64.9677C32.0541 64.4711 32.2157 63.8503 32.2157 63.064V62.3191L31.5287 62.4019ZM36.055 65.5885C35.8126 65.5885 35.6509 65.5057 35.5701 65.3402C35.4892 65.1332 35.4488 64.8435 35.4488 64.3883V59.1739H36.8229V58.3048H35.4488V56.4839H34.7214L34.5193 58.3462L33.7919 58.5532V59.1739H34.5193V64.4297C34.5193 65.0919 34.6002 65.5885 34.8022 65.9195C35.0043 66.292 35.368 66.4575 35.8934 66.4575C36.4188 66.4575 36.2571 66.4575 36.3783 66.4161C36.54 66.4161 36.6612 66.3334 36.7825 66.2506H36.8229V65.3402L36.7017 65.4229C36.54 65.5057 36.2975 65.5471 36.0954 65.5471L36.055 65.5885ZM38.0353 55.3666C37.8332 55.3666 37.6716 55.4493 37.5503 55.6149C37.4695 55.739 37.3887 55.946 37.3887 56.1529C37.3887 56.3598 37.4291 56.5667 37.5503 56.6909C37.6716 56.8564 37.7928 56.8978 37.9949 56.8978C38.197 56.8978 38.3586 56.815 38.4394 56.6909C38.5203 56.5667 38.6011 56.3598 38.6011 56.1529C38.6011 55.946 38.5607 55.7804 38.4799 55.6149C38.399 55.4493 38.2374 55.3666 38.0353 55.3666ZM37.5503 66.3334H38.4799V58.3462H37.5503V66.3334ZM43.572 54.9941H44.5419V66.3334H43.774L43.6932 65.216C43.5315 65.5057 43.3699 65.7954 43.1274 66.0437C42.8041 66.3334 42.4 66.4989 41.915 66.4989C41.1471 66.4989 40.5814 66.1265 40.1772 65.4229C39.8135 64.7194 39.6114 63.7262 39.6114 62.4019C39.6114 61.0776 39.8135 60.0016 40.1772 59.2981C40.5814 58.5532 41.1471 58.1807 41.8746 58.1807C42.602 58.1807 42.7233 58.3462 43.0466 58.5945C43.2486 58.8015 43.4507 59.0084 43.572 59.2567C43.572 59.1739 43.572 59.1325 43.572 59.0498C43.572 58.8842 43.572 58.7187 43.572 58.5532V54.9941ZM41.9958 59.0498C41.5109 59.0498 41.1471 59.2981 40.9047 59.8774C40.6622 60.4568 40.5409 61.2845 40.5409 62.3605C40.5409 63.4365 40.6622 64.2228 40.9047 64.7608C41.1471 65.2988 41.5109 65.5471 41.9958 65.5471C42.4808 65.5471 42.8849 65.2988 43.1274 64.8435C43.4103 64.3469 43.5315 63.6848 43.5315 62.7743V61.8639C43.5315 60.9534 43.4103 60.2085 43.1274 59.7533C42.8849 59.2567 42.4808 59.0498 41.9958 59.0498ZM49.6744 65.0505L49.8361 64.9263V65.9195H49.7956C49.5532 66.1264 49.2703 66.2506 48.9874 66.3334C48.7045 66.4161 48.4216 66.4575 48.0983 66.4575C47.4921 66.4575 46.9667 66.292 46.5626 65.9195C46.1584 65.5471 45.8755 65.0918 45.7139 64.4711C45.5522 63.8503 45.431 63.1468 45.431 62.3605C45.431 61.0776 45.633 60.043 45.9968 59.3395C46.4009 58.5945 47.0071 58.2221 47.8154 58.2221C48.6236 58.2221 48.7853 58.3876 49.1086 58.7187C49.4319 59.0498 49.6744 59.505 49.8361 60.043C49.9977 60.581 50.0785 61.1604 50.0785 61.7811V62.4846H46.3605C46.3605 64.5952 46.9667 65.6298 48.1387 65.6298C49.3107 65.6298 48.6641 65.6298 48.9065 65.5057C49.149 65.4229 49.3915 65.2988 49.6744 65.0505ZM46.8455 59.6705C46.603 60.0844 46.4413 60.7465 46.4009 61.6156H49.1894C49.1894 61.1604 49.149 60.7465 49.0278 60.3327C48.947 59.9188 48.7853 59.5878 48.5832 59.3395C48.3812 59.0911 48.1387 59.0084 47.8154 59.0084C47.4921 59.0084 47.0879 59.2153 46.805 59.6291L46.8455 59.6705ZM50.6443 55.6563H49.7148L49.8361 55.8218C50.4423 56.6909 50.9272 57.6841 51.2505 58.7601C51.6143 59.8361 51.7759 60.9948 51.7759 62.195C51.7759 63.3951 51.6951 63.7262 51.5334 64.5125C51.3718 65.2574 51.1697 66.0023 50.8464 66.7058C50.5635 67.4094 50.1998 68.0301 49.7956 68.5681L49.6744 68.7337H50.6443C51.0889 68.1543 51.4526 67.5335 51.7759 66.83C52.0992 66.1265 52.3013 65.3815 52.4629 64.5952C52.6246 63.8089 52.7054 62.9813 52.7054 62.195C52.7054 60.9948 52.5034 59.7947 52.18 58.6773C51.8163 57.5599 51.2909 56.5667 50.6443 55.739V55.6563ZM55.5344 66.3334H56.4639V58.3462H55.5344V66.3334ZM56.0193 55.3666C55.8173 55.3666 55.6556 55.4493 55.5344 55.6149C55.4535 55.739 55.3727 55.946 55.3727 56.1529C55.3727 56.3598 55.4131 56.5667 55.5344 56.6909C55.6556 56.8564 55.7768 56.8978 55.9789 56.8978C56.181 56.8978 56.3426 56.815 56.4235 56.6909C56.5043 56.5667 56.5851 56.3598 56.5851 56.1529C56.5851 55.946 56.5447 55.7804 56.4639 55.6149C56.383 55.4493 56.2214 55.3666 56.0193 55.3666ZM60.4648 58.1807C59.9799 58.1807 59.5353 58.3462 59.2524 58.6359C59.0099 58.8842 58.8483 59.1325 58.6866 59.4636L58.6058 58.3048H57.8379V66.292H58.7674V61.8639C58.7674 60.8707 58.9291 60.1671 59.1716 59.7119C59.4545 59.2567 59.8182 59.0498 60.2627 59.0498C60.7073 59.0498 60.8689 59.1739 61.0306 59.505C61.1923 59.7947 61.3135 60.3327 61.3135 60.9948V66.3334H62.2834V60.7879C62.2834 59.9188 62.1218 59.2567 61.7985 58.8015C61.4752 58.3876 61.0306 58.1393 60.4648 58.1807ZM63.5767 67.6991C63.5767 68.1543 63.5362 68.444 63.4554 68.6923C63.3746 68.8992 63.2534 68.982 63.0109 68.982C62.7684 68.982 62.8896 68.982 62.8088 68.982C62.728 68.982 62.6472 68.9406 62.6067 68.8992H62.4855C62.4855 68.8578 62.4855 69.7683 62.4855 69.7683H62.5259C62.6067 69.8096 62.6876 69.851 62.7684 69.851C62.8492 69.851 62.9705 69.851 63.0917 69.851C63.5362 69.851 63.8596 69.6855 64.102 69.3544C64.3445 69.0233 64.4658 68.5267 64.4658 67.7404V58.3048H63.5362V67.6991H63.5767ZM64.0616 55.3666C63.8596 55.3666 63.6979 55.4493 63.5767 55.6149C63.4958 55.739 63.4554 55.946 63.4554 56.1529C63.4554 56.3598 63.4958 56.5667 63.6171 56.6909C63.7383 56.8564 63.8596 56.8978 64.0616 56.8978C64.2637 56.8978 64.4253 56.815 64.5062 56.6909C64.6274 56.5667 64.6678 56.3598 64.6678 56.1529C64.6678 55.946 64.6274 55.7804 64.5466 55.6149C64.4658 55.4493 64.3041 55.3666 64.0616 55.3666ZM69.962 60.0016C70.1237 60.5396 70.2045 61.119 70.2045 61.7397V62.4433H66.4864C66.4864 64.5539 67.0926 65.5885 68.2646 65.5885C69.4366 65.5885 68.79 65.5885 69.0325 65.4643C69.275 65.3815 69.5174 65.2574 69.8003 65.0505L69.962 64.9263V65.9195H69.9216C69.6791 66.1264 69.3962 66.2506 69.1133 66.3334C68.8304 66.4161 68.5475 66.4575 68.2242 66.4575C67.618 66.4575 67.0926 66.292 66.6885 65.9195C66.2844 65.5471 66.0015 65.0918 65.8398 64.4711C65.6782 63.8503 65.5569 63.1468 65.5569 62.3605C65.5569 61.0776 65.759 60.043 66.1227 59.3395C66.5268 58.5945 67.1331 58.2221 67.9413 58.2221C68.7496 58.2221 68.9112 58.3876 69.2346 58.7187C69.5579 59.0498 69.8003 59.505 69.962 60.0016ZM66.9714 59.6705C66.7289 60.0844 66.5673 60.7465 66.5268 61.6156H69.3154C69.3154 61.1604 69.275 60.7465 69.1537 60.3327C69.0729 59.9188 68.9112 59.5878 68.7092 59.3395C68.5071 59.0911 68.2646 59.0084 67.9413 59.0084C67.618 59.0084 67.2139 59.2153 66.931 59.6291L66.9714 59.6705ZM73.5588 59.0498C73.8417 59.0498 74.165 59.1325 74.4479 59.2981H74.5287C74.5287 59.3395 74.852 58.5118 74.852 58.5118H74.7712C74.5691 58.3876 74.3671 58.3049 74.165 58.2221C73.9629 58.1807 73.7205 58.1393 73.478 58.1393C72.6293 58.1393 71.9827 58.5118 71.4977 59.2567C71.0532 60.0016 70.8511 61.0362 70.8511 62.3605C70.8511 63.6848 71.0532 64.6366 71.4573 65.3402C71.8614 66.0437 72.5081 66.4161 73.3972 66.4161C74.2863 66.4161 73.8417 66.4161 74.0842 66.3334C74.3267 66.292 74.5287 66.2092 74.7308 66.0851H74.7712V65.1746L74.65 65.2574C74.2458 65.4643 73.8821 65.5471 73.478 65.5471C72.9122 65.5471 72.508 65.2574 72.2252 64.7194C71.9423 64.14 71.821 63.3537 71.821 62.3605C71.821 61.3673 71.9827 60.4154 72.306 59.8361C72.6293 59.2981 73.0334 59.0498 73.5588 59.0498ZM77.681 65.5885C77.4385 65.5885 77.2769 65.5057 77.196 65.3402C77.1152 65.1332 77.0748 64.8435 77.0748 64.3883V59.1739H78.4488V58.3048H77.0748V56.4839H76.3473L76.1453 58.3462L75.4178 58.5532V59.1739H76.1453V64.4297C76.1453 65.0919 76.2261 65.5885 76.4282 65.9195C76.6302 66.292 76.994 66.4575 77.5193 66.4575C78.0447 66.4575 77.8831 66.4575 78.0043 66.4161C78.1659 66.4161 78.2872 66.3334 78.4084 66.2506H78.4488V65.3402L78.3276 65.4229C78.166 65.5057 77.9235 65.5471 77.7214 65.5471L77.681 65.5885ZM79.7421 55.3666C79.54 55.3666 79.3784 55.4493 79.2571 55.6149C79.1763 55.739 79.0955 55.946 79.0955 56.1529C79.0955 56.3598 79.1359 56.5667 79.2571 56.6909C79.3784 56.8564 79.4996 56.8978 79.7017 56.8978C79.9037 56.8978 80.0654 56.815 80.1462 56.6909C80.227 56.5667 80.3079 56.3598 80.3079 56.1529C80.3079 55.946 80.2675 55.7804 80.1866 55.6149C80.1058 55.4493 79.9441 55.3666 79.7421 55.3666ZM79.2571 66.3334H80.1866V58.3462H79.2571V66.3334ZM85.6425 59.2981C86.0466 60.0016 86.2487 61.0362 86.2487 62.3605C86.2487 63.6848 86.0466 64.678 85.6425 65.4229C85.2383 66.1678 84.5917 66.5403 83.743 66.5403C82.8943 66.5403 82.2881 66.1678 81.884 65.4229C81.4799 64.7194 81.2778 63.6848 81.2778 62.3605C81.2778 61.0362 81.4799 60.043 81.884 59.3395C82.2881 58.6359 82.9348 58.2635 83.7834 58.2635C84.6321 58.2635 85.2787 58.6359 85.6829 59.3808L85.6425 59.2981ZM84.8746 64.8022C85.1171 64.2642 85.2787 63.4365 85.2787 62.3191C85.2787 61.2017 85.1575 60.4568 84.915 59.8774C84.6725 59.3395 84.3088 59.0498 83.743 59.0498C83.1772 59.0498 82.8135 59.2981 82.571 59.8361C82.3285 60.3741 82.2073 61.2017 82.2073 62.2777C82.2073 63.3537 82.3286 64.1814 82.6114 64.7608C82.8539 65.2988 83.2581 65.5471 83.7834 65.5471C84.3088 65.5471 84.6725 65.2988 84.915 64.7608L84.8746 64.8022ZM91.2195 58.8428C90.8962 58.429 90.4517 58.1807 89.8455 58.1807C89.2393 58.1807 88.916 58.3462 88.6331 58.6359C88.3906 58.8842 88.2289 59.1325 88.0673 59.4636L87.9864 58.3048H87.2186V66.292H88.1481V61.8639C88.1481 60.8707 88.3098 60.1671 88.5522 59.7119C88.8351 59.2567 89.1989 59.0498 89.6434 59.0498C90.088 59.0498 90.2496 59.1739 90.4113 59.505C90.5729 59.7947 90.6942 60.3327 90.6942 60.9948V66.3334H91.6641V60.7879C91.6641 59.9188 91.5024 59.2567 91.2195 58.8428ZM3.56254 22.9628C2.30972 22.9628 1.74393 22.342 1.74393 20.8936C1.74393 19.4451 2.30972 18.8244 3.56254 18.8244C4.81536 18.8244 5.38115 19.4451 5.38115 20.8936C5.38115 22.342 4.81536 22.9628 3.56254 22.9628ZM3.56254 19.6521C2.95634 19.6521 2.75427 19.859 2.75427 20.8936C2.75427 21.9282 2.95634 22.1351 3.56254 22.1351C4.16874 22.1351 4.37081 21.9282 4.37081 20.8936C4.37081 19.859 4.16874 19.6521 3.56254 19.6521ZM8.61423 22.8386V20.1073C8.61423 19.7762 8.49299 19.6521 8.25051 19.6521C8.00803 19.6521 7.68472 19.859 7.40183 20.0659V22.7973H6.39149V18.8244H7.28059L7.40183 19.2382C7.68472 19.0313 8.12927 18.7416 8.57382 18.7416C9.42251 18.7416 9.58416 19.2796 9.58416 19.7348V22.7973L8.61423 22.8386ZM13.5043 19.7762C13.2214 19.6934 12.696 19.6521 12.3323 19.6521C11.7665 19.6521 11.6048 19.9004 11.6048 20.8522C11.6048 21.804 11.8473 22.0937 12.3727 22.0937C12.8981 22.0937 13.1001 22.0523 13.4639 21.9696L13.5447 22.88C13.2214 22.9628 12.8172 22.9628 12.3323 22.9628C10.9986 22.9628 10.5541 22.2179 10.5541 20.8936C10.5541 19.5693 11.0795 18.8244 12.3323 18.8244C13.5851 18.8244 13.181 18.8244 13.5447 18.9071V19.859L13.5043 19.7762ZM15.1208 21.2247C15.1208 21.9696 15.3229 22.1351 15.9291 22.1351C16.5353 22.1351 16.9394 22.0523 17.3436 21.9696V22.7973C16.9394 22.9214 16.1716 22.9628 15.8078 22.9628C14.5146 22.9628 14.1105 22.4662 14.1105 20.8936C14.1105 19.321 14.3934 18.8244 15.8078 18.8244C17.2223 18.8244 17.384 19.321 17.384 20.8936V21.2247H15.1208ZM15.8078 19.5279C15.2825 19.5279 15.1208 19.7762 15.1208 20.5211H16.4141C16.4141 19.7762 16.2928 19.5279 15.8078 19.5279ZM23.9714 22.8386H23.0015L22.4357 21.0177L21.8295 22.8386H20.8595L19.7684 18.8658H20.8191L21.3849 21.3902L21.9103 19.5693H22.8802L23.4056 21.3902L23.9714 18.8658H25.0221L23.9714 22.8386ZM26.3962 21.2247C26.3962 21.9696 26.5983 22.1351 27.2045 22.1351C27.8107 22.1351 28.2148 22.0523 28.6189 21.9696V22.7973C28.2148 22.9214 27.4469 22.9628 27.0832 22.9628C25.79 22.9628 25.3859 22.4662 25.3859 20.8936C25.3859 19.321 25.6688 18.8244 27.0832 18.8244C28.4977 18.8244 28.6594 19.321 28.6594 20.8936V21.2247H26.3962ZM27.1236 19.5279C26.5983 19.5279 26.4366 19.7762 26.4366 20.5211H27.7298C27.7298 19.7762 27.6086 19.5279 27.1236 19.5279ZM30.3567 21.2247C30.3567 21.9696 30.5588 22.1351 31.165 22.1351C31.7712 22.1351 32.1753 22.0523 32.5795 21.9696V22.7973C32.1753 22.9214 31.4075 22.9628 31.0438 22.9628C29.7505 22.9628 29.3464 22.4662 29.3464 20.8936C29.3464 19.321 29.6293 18.8244 31.0438 18.8244C32.4582 18.8244 32.6199 19.321 32.6199 20.8936V21.2247H30.3567ZM31.0438 19.5279C30.5184 19.5279 30.3567 19.7762 30.3567 20.5211H31.65C31.65 19.7762 31.5287 19.5279 31.0438 19.5279ZM36.1359 22.8386L34.6406 20.8522V22.8386H33.6302V17.1276H34.6406V20.2728L35.9338 18.8658H37.227L35.6105 20.5211L37.4291 22.8386H36.1359ZM37.9545 22.8386V17.1276H38.9648V22.8386H37.9545ZM41.1876 24.4526H40.1772L40.8238 22.7973L39.4498 18.8658H40.5409L41.3088 21.4316L42.1575 18.8658H43.2082L41.1067 24.4526H41.1876Z" fill="#707372"/>
<path d="M13.0364 45.6842V34.6875C13.0364 33.3392 12.6057 32.8758 11.9904 32.8758C11.375 32.8758 10.6982 33.3392 10.0213 34.0134V45.6842H7.00624V34.6875C7.00624 33.3392 6.57551 32.8758 5.96019 32.8758C5.34487 32.8758 4.66801 33.2971 3.99116 33.9291V45.6842H0.976074V29.6315H3.62196L3.96039 30.9798C4.94491 30.0528 6.11402 29.2523 7.43696 29.2523C8.75991 29.2523 9.34446 30.0107 9.77519 31.3168C10.8212 30.2635 12.0519 29.2523 13.4979 29.2523C14.9439 29.2523 16.1438 31.0219 16.1438 33.8027V45.7263H13.1287L13.0364 45.6842ZM23.4969 46.0634C19.6819 46.0634 17.9897 43.4933 17.9897 37.6368C17.9897 31.7803 19.6819 29.2102 23.4969 29.2102C27.3119 29.2102 29.004 31.7803 29.004 37.6368C29.004 43.4933 27.3119 46.0634 23.4969 46.0634ZM23.4969 32.6651C21.6509 32.6651 21.0971 33.5499 21.0971 37.6368C21.0971 41.7237 21.6509 42.6085 23.4969 42.6085C25.3429 42.6085 25.8966 41.7237 25.8966 37.6368C25.8966 33.5499 25.3429 32.6651 23.4969 32.6651ZM37.9877 45.6842L37.5878 44.0832C36.6648 44.9679 35.3419 46.1055 34.0189 46.1055C31.4038 46.1055 30.9115 43.9146 30.9115 42.1029V29.6736H33.9266V40.7546C33.9266 42.0186 34.265 42.5664 35.0342 42.5664C35.8033 42.5664 36.7879 41.7237 37.6185 40.8389V29.6736H40.6336V45.7263L37.9877 45.6842ZM50.0481 45.6842V34.6032C50.0481 33.3392 49.7096 32.7915 48.9405 32.7915C48.1713 32.7915 47.1868 33.6342 46.3561 34.5189V45.6842H43.341V29.6315H45.9869L46.3869 31.2326C47.3099 30.3478 48.6328 29.2102 49.9558 29.2102C52.5709 29.2102 53.0631 31.4011 53.0631 33.2128V45.6421H50.0481V45.6842ZM54.8476 52.4255C54.4169 52.4255 53.6785 52.3412 53.1554 52.257V48.7178C53.7708 48.9284 54.2323 49.0127 54.6938 49.0127C55.6167 49.0127 55.7398 48.4229 55.7398 46.7375V29.5894H58.7549V46.7797C58.7549 49.8554 58.2011 52.4255 54.8168 52.4255H54.8476ZM57.2781 27.3142C56.0475 27.3142 55.586 26.5979 55.586 24.9126C55.586 23.2273 56.0782 22.5532 57.2781 22.5532C58.478 22.5532 58.9702 23.2273 58.9702 24.9126C58.9702 26.5979 58.478 27.3142 57.2781 27.3142ZM68.1386 45.6842L67.7694 44.1674C66.5079 45.3471 65.3388 46.0213 64.1082 46.0213C62.2622 46.0213 60.7855 45.305 60.7855 41.4709C60.7855 37.6368 62.2622 35.5301 67.7694 35.6565V34.7717C67.7694 33.6342 67.7694 32.5808 66.108 32.5808C64.4466 32.5808 63.0621 33.0864 61.77 33.7606V30.1792C63.0621 29.6315 65.0619 29.2102 66.1695 29.2102C68.9692 29.2102 70.6921 30.432 70.6921 34.224V45.6842H68.1386ZM67.7386 38.4373C64.6927 38.3109 63.5544 38.4373 63.5544 41.0074C63.5544 43.5776 63.8928 43.0298 65.0619 43.0298C66.2311 43.0298 67.031 42.3557 67.7386 41.5552V38.4373ZM79.1836 33.1286C77.9837 33.1286 76.9992 33.887 76.2608 34.5611V45.6421H73.2457V29.5894H75.8916L76.2916 31.1062C77.03 30.1792 78.2299 29.0838 79.8605 29.0838C81.4911 29.0838 80.1373 29.0838 80.2604 29.0838V33.1707C80.0143 33.0864 79.7989 33.0864 79.1836 33.1286ZM86.8751 46.0634C83.0601 46.0634 81.368 43.4933 81.368 37.6368C81.368 31.7803 83.0601 29.2102 86.8751 29.2102C90.6901 29.2102 92.3823 31.7803 92.3823 37.6368C92.3823 43.4933 90.6901 46.0634 86.8751 46.0634ZM86.8751 32.6651C85.0292 32.6651 84.4754 33.5499 84.4754 37.6368C84.4754 41.7237 85.0292 42.6085 86.8751 42.6085C88.7211 42.6085 89.2749 41.7237 89.2749 37.6368C89.2749 33.5499 88.7211 32.6651 86.8751 32.6651Z" fill="#5D0096"/>
<path d="M60.4331 7.09069L57.7753 11.9841L53.4114 20.0638H47.5052C46.6193 20.0638 45.9303 19.4948 45.5694 18.7362C45.2084 17.9775 45.1756 16.9912 45.635 16.1188L53.6082 1.36279C54.0348 0.56619 54.7566 0.148926 55.4785 0.148926C56.2003 0.148926 56.9222 0.528257 57.3488 1.36279L60.4331 7.05276V7.09069Z" fill="#5D0096"/>
<path d="M69.9153 16.1187L64.5998 6.294C64.1733 5.4974 63.4514 5.08014 62.6968 5.08014C61.9421 5.08014 61.253 5.4974 60.7937 6.294L60.5968 6.67333L60.3999 7.05266L57.7422 11.946L62.1061 20.0258H68.0122C68.8982 20.0258 69.5872 19.4568 69.9481 18.6981C70.3091 17.9395 70.3419 16.9532 69.8825 16.0808L69.9153 16.1187Z" fill="#FA4242"/>
<path d="M93.8441 28.7447C94.2163 28.7447 94.5885 28.9191 94.9075 29.1806C95.2265 29.4421 95.5455 29.9652 95.705 30.4883C95.8645 31.0114 96.0241 31.7089 96.0241 32.3192C96.0241 32.9294 95.9177 33.5397 95.7582 34.15C95.5455 34.7603 95.2797 35.1962 94.9606 35.4577C94.5885 35.8064 94.2694 35.8936 93.8441 35.8936C93.4187 35.8936 93.0997 35.7193 92.7275 35.4577C92.3553 35.109 92.0894 34.6731 91.9299 34.15C91.7172 33.5397 91.6641 33.0166 91.6641 32.3192C91.6641 31.6217 91.7704 31.0986 91.9831 30.4883C92.1958 29.8781 92.4616 29.4421 92.7806 29.1806C93.0997 28.9191 93.4719 28.7447 93.8441 28.7447ZM93.8441 29.4421C93.525 29.4421 93.2592 29.5293 92.9933 29.7909C92.7275 30.0524 92.5148 30.4012 92.3553 30.8371C92.1958 31.273 92.0894 31.7961 92.0894 32.3192C92.0894 32.8423 92.1426 33.2782 92.3021 33.8013C92.4616 34.2372 92.6743 34.5859 92.9402 34.8474C93.206 35.109 93.525 35.1962 93.8441 35.1962C94.1631 35.1962 94.4289 35.109 94.748 34.8474C95.0138 34.5859 95.2265 34.2372 95.386 33.8013C95.5455 33.3653 95.5987 32.8423 95.5987 32.3192C95.5987 31.7961 95.4924 31.3602 95.3329 30.8371C95.1733 30.4012 94.9606 30.0524 94.6948 29.7909C94.4289 29.5293 94.1099 29.4421 93.8441 29.4421ZM92.8338 34.3244V30.4883H93.3124C93.7377 30.4883 94.0036 30.4883 94.0567 30.4883C94.2163 30.4883 94.3226 30.4883 94.4289 30.6627C94.5353 30.8371 94.5885 30.8371 94.6416 31.0114C94.6948 31.1858 94.748 31.3602 94.748 31.5345C94.748 31.7089 94.6948 32.0576 94.5884 32.232C94.4821 32.4063 94.3226 32.5807 94.1099 32.5807C94.1631 32.5807 94.2163 32.6679 94.2694 32.7551C94.3226 32.8423 94.3758 32.9294 94.4289 33.0166C94.4289 33.0166 94.4821 33.191 94.5884 33.4525L94.8543 34.2372H94.2694L94.0567 33.6269C93.9504 33.191 93.7909 32.9294 93.7377 32.8422C93.6846 32.7551 93.525 32.6679 93.4187 32.6679H93.3124V34.2372L92.8338 34.3244ZM93.3124 32.1448H93.525C93.7909 32.1448 93.9504 32.1448 94.0567 32.1448C94.1099 32.1448 94.1631 32.0576 94.2163 31.9704C94.2163 31.9704 94.2694 31.7961 94.2694 31.7089C94.2694 31.6217 94.2694 31.5345 94.2163 31.4473C94.1631 31.3602 94.1099 31.273 94.0567 31.273C94.0036 31.273 93.8441 31.273 93.525 31.273H93.3124V32.3192V32.1448Z" fill="#5D0096"/>
</svg>
