<svg width="37" height="64" viewBox="0 0 37 64" fill="none" xmlns="http://www.w3.org/2000/svg">
<path d="M20.2812 29.5455V28.0114C20.2812 26.8466 20.5275 25.7765 21.0199 24.8011C21.5218 23.8163 22.2462 23.0303 23.1932 22.4432C24.1496 21.8466 25.3144 21.5483 26.6875 21.5483C28.0795 21.5483 29.2491 21.8419 30.196 22.429C31.1525 23.0161 31.8722 23.8021 32.3551 24.7869C32.8475 25.7623 33.0938 26.8371 33.0938 28.0114V29.5455C33.0938 30.7102 32.8475 31.785 32.3551 32.7699C31.8627 33.7453 31.1383 34.5265 30.1818 35.1136C29.2254 35.7102 28.0606 36.0085 26.6875 36.0085C25.2955 36.0085 24.1259 35.7102 23.179 35.1136C22.232 34.5265 21.5123 33.7453 21.0199 32.7699C20.5275 31.785 20.2812 30.7102 20.2812 29.5455ZM24.4148 28.0114V29.5455C24.4148 30.2178 24.5758 30.8523 24.8977 31.4489C25.2292 32.0455 25.8258 32.3438 26.6875 32.3438C27.5492 32.3438 28.1364 32.0502 28.4489 31.4631C28.7708 30.8759 28.9318 30.2367 28.9318 29.5455V28.0114C28.9318 27.3201 28.7803 26.6761 28.4773 26.0795C28.1742 25.483 27.5777 25.1847 26.6875 25.1847C25.8352 25.1847 25.2434 25.483 24.9119 26.0795C24.5805 26.6761 24.4148 27.3201 24.4148 28.0114ZM5.35227 12.8977V11.3636C5.35227 10.1894 5.60322 9.11458 6.10511 8.1392C6.60701 7.15435 7.33144 6.36837 8.27841 5.78125C9.23485 5.19413 10.3902 4.90057 11.7443 4.90057C13.1458 4.90057 14.3201 5.19413 15.267 5.78125C16.214 6.36837 16.9337 7.15435 17.4261 8.1392C17.9186 9.11458 18.1648 10.1894 18.1648 11.3636V12.8977C18.1648 14.072 17.9138 15.1468 17.4119 16.1222C16.9195 17.0975 16.1951 17.8788 15.2386 18.4659C14.2917 19.0436 13.1269 19.3324 11.7443 19.3324C10.3617 19.3324 9.19224 19.0388 8.2358 18.4517C7.28883 17.8551 6.56913 17.0739 6.0767 16.108C5.59375 15.1326 5.35227 14.0625 5.35227 12.8977ZM9.5142 11.3636V12.8977C9.5142 13.589 9.67519 14.2282 9.99716 14.8153C10.3286 15.4025 10.911 15.696 11.7443 15.696C12.6155 15.696 13.2074 15.4025 13.5199 14.8153C13.8419 14.2282 14.0028 13.589 14.0028 12.8977V11.3636C14.0028 10.6723 13.8513 10.0284 13.5483 9.43182C13.2453 8.83523 12.6439 8.53693 11.7443 8.53693C10.9015 8.53693 10.3191 8.83996 9.99716 9.44602C9.67519 10.0521 9.5142 10.6913 9.5142 11.3636ZM7.22727 35L27.2273 5.90909H30.9489L10.9489 35H7.22727Z" fill="#CC3939"/>
<path d="M20.8936 59.6462L33.4644 47.4346C34.7525 46.1833 33.8667 44 32.0709 44H6.92915C5.13333 44 4.24747 46.1833 5.53557 47.4346L18.1064 59.6462C18.8825 60.4002 20.1175 60.4002 20.8936 59.6462Z" fill="#C62505"/>
</svg>
