<svg width="226" height="32" viewBox="0 0 226 32" fill="none" xmlns="http://www.w3.org/2000/svg">
<path d="M0.295455 25V1.72727H9.02273C10.8106 1.72727 12.3106 2.06061 13.5227 2.72727C14.7424 3.39394 15.6629 4.31061 16.2841 5.47727C16.9129 6.63636 17.2273 7.95454 17.2273 9.43182C17.2273 10.9242 16.9129 12.25 16.2841 13.4091C15.6553 14.5682 14.7273 15.4811 13.5 16.1477C12.2727 16.8068 10.7614 17.1364 8.96591 17.1364H3.18182V13.6705H8.39773C9.44318 13.6705 10.2992 13.4886 10.9659 13.125C11.6326 12.7614 12.125 12.2614 12.4432 11.625C12.7689 10.9886 12.9318 10.2576 12.9318 9.43182C12.9318 8.60606 12.7689 7.87879 12.4432 7.25C12.125 6.62121 11.6288 6.13258 10.9545 5.78409C10.2879 5.42803 9.42803 5.25 8.375 5.25H4.51136V25H0.295455ZM20.7074 25V7.54545H24.696V10.4545H24.8778C25.196 9.44697 25.7415 8.67045 26.5142 8.125C27.2945 7.57197 28.1847 7.29545 29.1847 7.29545C29.4119 7.29545 29.6657 7.30682 29.946 7.32954C30.2339 7.3447 30.4725 7.37121 30.6619 7.40909V11.1932C30.4877 11.1326 30.2112 11.0795 29.8324 11.0341C29.4612 10.9811 29.1013 10.9545 28.7528 10.9545C28.0028 10.9545 27.3286 11.1174 26.7301 11.4432C26.1392 11.7614 25.6733 12.2045 25.3324 12.7727C24.9915 13.3409 24.821 13.9962 24.821 14.7386V25H20.7074ZM40.2898 25.3409C38.5852 25.3409 37.108 24.9659 35.858 24.2159C34.608 23.4659 33.6383 22.4167 32.9489 21.0682C32.267 19.7197 31.9261 18.1439 31.9261 16.3409C31.9261 14.5379 32.267 12.9583 32.9489 11.6023C33.6383 10.2462 34.608 9.19318 35.858 8.44318C37.108 7.69318 38.5852 7.31818 40.2898 7.31818C41.9943 7.31818 43.4716 7.69318 44.7216 8.44318C45.9716 9.19318 46.9375 10.2462 47.6193 11.6023C48.3087 12.9583 48.6534 14.5379 48.6534 16.3409C48.6534 18.1439 48.3087 19.7197 47.6193 21.0682C46.9375 22.4167 45.9716 23.4659 44.7216 24.2159C43.4716 24.9659 41.9943 25.3409 40.2898 25.3409ZM40.3125 22.0455C41.2367 22.0455 42.0095 21.7917 42.6307 21.2841C43.2519 20.7689 43.714 20.0795 44.017 19.2159C44.3277 18.3523 44.483 17.3902 44.483 16.3295C44.483 15.2614 44.3277 14.2955 44.017 13.4318C43.714 12.5606 43.2519 11.8674 42.6307 11.3523C42.0095 10.8371 41.2367 10.5795 40.3125 10.5795C39.3655 10.5795 38.5777 10.8371 37.9489 11.3523C37.3277 11.8674 36.8617 12.5606 36.5511 13.4318C36.2481 14.2955 36.0966 15.2614 36.0966 16.3295C36.0966 17.3902 36.2481 18.3523 36.5511 19.2159C36.8617 20.0795 37.3277 20.7689 37.9489 21.2841C38.5777 21.7917 39.3655 22.0455 40.3125 22.0455ZM60.8608 7.54545V10.7273H50.8267V7.54545H60.8608ZM53.304 3.36364H57.4176V19.75C57.4176 20.303 57.5009 20.7273 57.6676 21.0227C57.8419 21.3106 58.0691 21.5076 58.3494 21.6136C58.6297 21.7197 58.9403 21.7727 59.2812 21.7727C59.5388 21.7727 59.7737 21.7538 59.9858 21.7159C60.2055 21.678 60.3722 21.6439 60.4858 21.6136L61.179 24.8295C60.9593 24.9053 60.6449 24.9886 60.2358 25.0795C59.8343 25.1705 59.3419 25.2235 58.7585 25.2386C57.7282 25.2689 56.8002 25.1136 55.9744 24.7727C55.1487 24.4242 54.4934 23.8864 54.0085 23.1591C53.5313 22.4318 53.2964 21.5227 53.304 20.4318V3.36364ZM71.8409 25.3409C70.0909 25.3409 68.5795 24.9773 67.3068 24.25C66.0417 23.5152 65.0682 22.4773 64.3864 21.1364C63.7045 19.7879 63.3636 18.2008 63.3636 16.375C63.3636 14.5795 63.7045 13.0038 64.3864 11.6477C65.0758 10.2841 66.0379 9.22348 67.2727 8.46591C68.5076 7.70076 69.9583 7.31818 71.625 7.31818C72.7008 7.31818 73.7159 7.49242 74.6705 7.84091C75.6326 8.18182 76.4811 8.71212 77.2159 9.43182C77.9583 10.1515 78.5417 11.0682 78.9659 12.1818C79.3902 13.2879 79.6023 14.6061 79.6023 16.1364V17.3977H65.2955V14.625H75.6591C75.6515 13.8371 75.4811 13.1364 75.1477 12.5227C74.8144 11.9015 74.3485 11.4129 73.75 11.0568C73.1591 10.7008 72.4697 10.5227 71.6818 10.5227C70.8409 10.5227 70.1023 10.7273 69.4659 11.1364C68.8295 11.5379 68.3333 12.0682 67.9773 12.7273C67.6288 13.3788 67.4508 14.0947 67.4432 14.875V17.2955C67.4432 18.3106 67.6288 19.1818 68 19.9091C68.3712 20.6288 68.8902 21.1818 69.5568 21.5682C70.2235 21.947 71.0038 22.1364 71.8977 22.1364C72.4962 22.1364 73.0379 22.053 73.5227 21.8864C74.0076 21.7121 74.428 21.4583 74.7841 21.125C75.1402 20.7917 75.4091 20.3788 75.5909 19.8864L79.4318 20.3182C79.1894 21.3333 78.7273 22.2197 78.0455 22.9773C77.3712 23.7273 76.5076 24.3106 75.4545 24.7273C74.4015 25.1364 73.197 25.3409 71.8409 25.3409ZM90.696 25.3409C88.9536 25.3409 87.4574 24.9583 86.2074 24.1932C84.965 23.428 84.0066 22.3712 83.3324 21.0227C82.6657 19.6667 82.3324 18.1061 82.3324 16.3409C82.3324 14.5682 82.6733 13.0038 83.3551 11.6477C84.0369 10.2841 84.9991 9.22348 86.2415 8.46591C87.4915 7.70076 88.9688 7.31818 90.6733 7.31818C92.09 7.31818 93.3438 7.57955 94.4347 8.10227C95.5331 8.61742 96.4081 9.34848 97.0597 10.2955C97.7112 11.2348 98.0824 12.3333 98.1733 13.5909H94.2415C94.0824 12.75 93.7036 12.0492 93.1051 11.4886C92.5142 10.9205 91.7225 10.6364 90.7301 10.6364C89.8892 10.6364 89.1506 10.8636 88.5142 11.3182C87.8778 11.7652 87.3816 12.4091 87.0256 13.25C86.6771 14.0909 86.5028 15.0985 86.5028 16.2727C86.5028 17.4621 86.6771 18.4848 87.0256 19.3409C87.3741 20.1894 87.8627 20.8447 88.4915 21.3068C89.1278 21.7614 89.8741 21.9886 90.7301 21.9886C91.3362 21.9886 91.8778 21.875 92.3551 21.6477C92.84 21.4129 93.2453 21.0758 93.571 20.6364C93.8968 20.197 94.1203 19.6629 94.2415 19.0341H98.1733C98.0748 20.2689 97.7112 21.3636 97.0824 22.3182C96.4536 23.2652 95.5975 24.0076 94.5142 24.5455C93.4309 25.0758 92.1581 25.3409 90.696 25.3409ZM110.267 7.54545V10.7273H100.233V7.54545H110.267ZM102.71 3.36364H106.824V19.75C106.824 20.303 106.907 20.7273 107.074 21.0227C107.248 21.3106 107.475 21.5076 107.756 21.6136C108.036 21.7197 108.347 21.7727 108.688 21.7727C108.945 21.7727 109.18 21.7538 109.392 21.7159C109.612 21.678 109.778 21.6439 109.892 21.6136L110.585 24.8295C110.366 24.9053 110.051 24.9886 109.642 25.0795C109.241 25.1705 108.748 25.2235 108.165 25.2386C107.134 25.2689 106.206 25.1136 105.381 24.7727C104.555 24.4242 103.9 23.8864 103.415 23.1591C102.938 22.4318 102.703 21.5227 102.71 20.4318V3.36364ZM113.707 25V7.54545H117.821V25H113.707ZM115.776 5.06818C115.124 5.06818 114.563 4.85227 114.094 4.42045C113.624 3.98106 113.389 3.45454 113.389 2.84091C113.389 2.2197 113.624 1.69318 114.094 1.26136C114.563 0.821969 115.124 0.602272 115.776 0.602272C116.435 0.602272 116.995 0.821969 117.457 1.26136C117.927 1.69318 118.162 2.2197 118.162 2.84091C118.162 3.45454 117.927 3.98106 117.457 4.42045C116.995 4.85227 116.435 5.06818 115.776 5.06818ZM137.642 7.54545L131.426 25H126.881L120.665 7.54545H125.051L129.062 20.5114H129.244L133.267 7.54545H137.642ZM147.622 25.3409C145.872 25.3409 144.361 24.9773 143.088 24.25C141.823 23.5152 140.849 22.4773 140.168 21.1364C139.486 19.7879 139.145 18.2008 139.145 16.375C139.145 14.5795 139.486 13.0038 140.168 11.6477C140.857 10.2841 141.819 9.22348 143.054 8.46591C144.289 7.70076 145.74 7.31818 147.406 7.31818C148.482 7.31818 149.497 7.49242 150.452 7.84091C151.414 8.18182 152.262 8.71212 152.997 9.43182C153.74 10.1515 154.323 11.0682 154.747 12.1818C155.171 13.2879 155.384 14.6061 155.384 16.1364V17.3977H141.077V14.625H151.44C151.433 13.8371 151.262 13.1364 150.929 12.5227C150.596 11.9015 150.13 11.4129 149.531 11.0568C148.94 10.7008 148.251 10.5227 147.463 10.5227C146.622 10.5227 145.884 10.7273 145.247 11.1364C144.611 11.5379 144.115 12.0682 143.759 12.7273C143.41 13.3788 143.232 14.0947 143.224 14.875V17.2955C143.224 18.3106 143.41 19.1818 143.781 19.9091C144.152 20.6288 144.671 21.1818 145.338 21.5682C146.005 21.947 146.785 22.1364 147.679 22.1364C148.277 22.1364 148.819 22.053 149.304 21.8864C149.789 21.7121 150.209 21.4583 150.565 21.125C150.921 20.7917 151.19 20.3788 151.372 19.8864L155.213 20.3182C154.971 21.3333 154.509 22.2197 153.827 22.9773C153.152 23.7273 152.289 24.3106 151.236 24.7273C150.183 25.1364 148.978 25.3409 147.622 25.3409ZM186.903 9.57955H182.653C182.532 8.88258 182.309 8.26515 181.983 7.72727C181.657 7.18182 181.252 6.7197 180.767 6.34091C180.282 5.96212 179.729 5.67803 179.108 5.48864C178.494 5.29167 177.831 5.19318 177.119 5.19318C175.854 5.19318 174.733 5.51136 173.756 6.14773C172.778 6.77651 172.013 7.70076 171.46 8.92045C170.907 10.1326 170.631 11.6136 170.631 13.3636C170.631 15.1439 170.907 16.6439 171.46 17.8636C172.021 19.0758 172.786 19.9924 173.756 20.6136C174.733 21.2273 175.85 21.5341 177.108 21.5341C177.805 21.5341 178.456 21.4432 179.062 21.2614C179.676 21.072 180.225 20.7955 180.71 20.4318C181.203 20.0682 181.616 19.6212 181.949 19.0909C182.29 18.5606 182.525 17.9545 182.653 17.2727L186.903 17.2955C186.744 18.4015 186.4 19.4394 185.869 20.4091C185.347 21.3788 184.661 22.2348 183.812 22.9773C182.964 23.7121 181.972 24.2879 180.835 24.7045C179.699 25.1136 178.438 25.3182 177.051 25.3182C175.006 25.3182 173.18 24.8447 171.574 23.8977C169.968 22.9508 168.703 21.5833 167.778 19.7955C166.854 18.0076 166.392 15.8636 166.392 13.3636C166.392 10.8561 166.858 8.71212 167.79 6.93182C168.722 5.14394 169.991 3.77651 171.597 2.82954C173.203 1.88257 175.021 1.40909 177.051 1.40909C178.347 1.40909 179.551 1.59091 180.665 1.95454C181.778 2.31818 182.771 2.85227 183.642 3.55682C184.513 4.25379 185.229 5.10985 185.79 6.125C186.358 7.13258 186.729 8.28409 186.903 9.57955ZM195.605 25.3523C194.499 25.3523 193.503 25.1553 192.616 24.7614C191.738 24.3598 191.041 23.7689 190.526 22.9886C190.018 22.2083 189.764 21.2462 189.764 20.1023C189.764 19.1174 189.946 18.303 190.31 17.6591C190.673 17.0152 191.17 16.5 191.798 16.1136C192.427 15.7273 193.135 15.4356 193.923 15.2386C194.719 15.0341 195.541 14.8864 196.389 14.7955C197.412 14.6894 198.241 14.5947 198.878 14.5114C199.514 14.4205 199.976 14.2841 200.264 14.1023C200.56 13.9129 200.707 13.6212 200.707 13.2273V13.1591C200.707 12.303 200.454 11.6402 199.946 11.1705C199.438 10.7008 198.707 10.4659 197.753 10.4659C196.745 10.4659 195.946 10.6856 195.355 11.125C194.772 11.5644 194.378 12.0833 194.173 12.6818L190.332 12.1364C190.635 11.0758 191.135 10.1894 191.832 9.47727C192.529 8.75757 193.382 8.2197 194.389 7.86364C195.397 7.5 196.51 7.31818 197.73 7.31818C198.571 7.31818 199.408 7.41667 200.241 7.61364C201.075 7.81061 201.836 8.13636 202.526 8.59091C203.215 9.03788 203.768 9.64773 204.185 10.4205C204.609 11.1932 204.821 12.1591 204.821 13.3182V25H200.866V22.6023H200.73C200.48 23.0871 200.128 23.5417 199.673 23.9659C199.226 24.3826 198.662 24.7197 197.98 24.9773C197.306 25.2273 196.514 25.3523 195.605 25.3523ZM196.673 22.3295C197.499 22.3295 198.215 22.1667 198.821 21.8409C199.427 21.5076 199.893 21.0682 200.219 20.5227C200.552 19.9773 200.719 19.3826 200.719 18.7386V16.6818C200.59 16.7879 200.37 16.8864 200.06 16.9773C199.757 17.0682 199.416 17.1477 199.037 17.2159C198.658 17.2841 198.283 17.3447 197.912 17.3977C197.541 17.4508 197.219 17.4962 196.946 17.5341C196.332 17.6174 195.783 17.7538 195.298 17.9432C194.813 18.1326 194.431 18.3977 194.151 18.7386C193.87 19.072 193.73 19.5038 193.73 20.0341C193.73 20.7917 194.007 21.3636 194.56 21.75C195.113 22.1364 195.817 22.3295 196.673 22.3295ZM208.957 31.5455V7.54545H213.003V10.4318H213.241C213.454 10.0076 213.753 9.55682 214.139 9.07955C214.526 8.5947 215.048 8.18182 215.707 7.84091C216.366 7.49242 217.207 7.31818 218.23 7.31818C219.579 7.31818 220.795 7.66288 221.878 8.35227C222.969 9.03409 223.832 10.0455 224.469 11.3864C225.113 12.7197 225.435 14.3561 225.435 16.2955C225.435 18.2121 225.12 19.8409 224.491 21.1818C223.863 22.5227 223.007 23.5455 221.923 24.25C220.84 24.9545 219.613 25.3068 218.241 25.3068C217.241 25.3068 216.412 25.1402 215.753 24.8068C215.094 24.4735 214.563 24.072 214.162 23.6023C213.768 23.125 213.461 22.6742 213.241 22.25H213.071V31.5455H208.957ZM212.991 16.2727C212.991 17.4015 213.151 18.3902 213.469 19.2386C213.795 20.0871 214.26 20.75 214.866 21.2273C215.48 21.697 216.223 21.9318 217.094 21.9318C218.003 21.9318 218.764 21.6894 219.378 21.2045C219.991 20.7121 220.454 20.0417 220.764 19.1932C221.082 18.3371 221.241 17.3636 221.241 16.2727C221.241 15.1894 221.086 14.2273 220.776 13.3864C220.465 12.5455 220.003 11.8864 219.389 11.4091C218.776 10.9318 218.01 10.6932 217.094 10.6932C216.215 10.6932 215.469 10.9242 214.855 11.3864C214.241 11.8485 213.776 12.4962 213.457 13.3295C213.147 14.1629 212.991 15.1439 212.991 16.2727Z" fill="#5D0096"/>
</svg>
