<svg width="242" height="76" viewBox="0 0 242 76" fill="none" xmlns="http://www.w3.org/2000/svg">
<path d="M0.295455 24V0.727272H9.02273C10.8106 0.727272 12.3106 1.03788 13.5227 1.65909C14.7424 2.2803 15.6629 3.15151 16.2841 4.27273C16.9129 5.38636 17.2273 6.68561 17.2273 8.17045C17.2273 9.66288 16.9091 10.9583 16.2727 12.0568C15.6439 13.1477 14.7159 13.9924 13.4886 14.5909C12.2614 15.1818 10.7538 15.4773 8.96591 15.4773H2.75V11.9773H8.39773C9.44318 11.9773 10.2992 11.8333 10.9659 11.5455C11.6326 11.25 12.125 10.822 12.4432 10.2614C12.7689 9.69318 12.9318 8.99621 12.9318 8.17045C12.9318 7.3447 12.7689 6.64015 12.4432 6.05682C12.1174 5.46591 11.6212 5.01894 10.9545 4.71591C10.2879 4.4053 9.42803 4.25 8.375 4.25H4.51136V24H0.295455ZM12.3182 13.4545L18.0795 24H13.375L7.71591 13.4545H12.3182ZM32.0511 16.6591V6.54545H36.1648V24H32.1761V20.8977H31.9943C31.6004 21.875 30.9527 22.6742 30.0511 23.2955C29.1572 23.9167 28.0549 24.2273 26.7443 24.2273C25.6004 24.2273 24.589 23.9735 23.7102 23.4659C22.839 22.9508 22.1572 22.2045 21.6648 21.2273C21.1723 20.2424 20.9261 19.053 20.9261 17.6591V6.54545H25.0398V17.0227C25.0398 18.1288 25.3428 19.0076 25.9489 19.6591C26.5549 20.3106 27.3504 20.6364 28.3352 20.6364C28.9413 20.6364 29.5284 20.4886 30.0966 20.1932C30.6648 19.8977 31.1307 19.4583 31.4943 18.875C31.8655 18.2841 32.0511 17.5455 32.0511 16.6591ZM40.5767 24V0.727272H44.6903V9.43182H44.8608C45.0729 9.00758 45.3722 8.55682 45.7585 8.07955C46.1449 7.5947 46.6676 7.18182 47.3267 6.84091C47.9858 6.49242 48.8267 6.31818 49.8494 6.31818C51.1979 6.31818 52.4138 6.66288 53.4972 7.35227C54.5881 8.03409 55.4517 9.04545 56.0881 10.3864C56.732 11.7197 57.054 13.3561 57.054 15.2955C57.054 17.2121 56.7396 18.8409 56.1108 20.1818C55.482 21.5227 54.6259 22.5455 53.5426 23.25C52.4593 23.9545 51.232 24.3068 49.8608 24.3068C48.8608 24.3068 48.0313 24.1402 47.3722 23.8068C46.7131 23.4735 46.1828 23.072 45.7812 22.6023C45.3873 22.125 45.0805 21.6742 44.8608 21.25H44.6222V24H40.5767ZM44.6108 15.2727C44.6108 16.4015 44.7699 17.3902 45.0881 18.2386C45.4138 19.0871 45.8797 19.75 46.4858 20.2273C47.0994 20.697 47.8419 20.9318 48.7131 20.9318C49.6222 20.9318 50.3835 20.6894 50.9972 20.2045C51.6108 19.7121 52.0729 19.0417 52.3835 18.1932C52.7017 17.3371 52.8608 16.3636 52.8608 15.2727C52.8608 14.1894 52.7055 13.2273 52.3949 12.3864C52.0843 11.5455 51.6222 10.8864 51.0085 10.4091C50.3949 9.93182 49.6297 9.69318 48.7131 9.69318C47.8343 9.69318 47.0881 9.92424 46.4744 10.3864C45.8608 10.8485 45.3949 11.4962 45.0767 12.3295C44.7661 13.1629 44.6108 14.1439 44.6108 15.2727ZM60.733 24V0.727272H64.8466V9.43182H65.017C65.2292 9.00758 65.5284 8.55682 65.9148 8.07955C66.3011 7.5947 66.8239 7.18182 67.483 6.84091C68.142 6.49242 68.983 6.31818 70.0057 6.31818C71.3542 6.31818 72.5701 6.66288 73.6534 7.35227C74.7443 8.03409 75.608 9.04545 76.2443 10.3864C76.8883 11.7197 77.2102 13.3561 77.2102 15.2955C77.2102 17.2121 76.8958 18.8409 76.267 20.1818C75.6383 21.5227 74.7822 22.5455 73.6989 23.25C72.6155 23.9545 71.3883 24.3068 70.017 24.3068C69.017 24.3068 68.1875 24.1402 67.5284 23.8068C66.8693 23.4735 66.339 23.072 65.9375 22.6023C65.5436 22.125 65.2367 21.6742 65.017 21.25H64.7784V24H60.733ZM64.767 15.2727C64.767 16.4015 64.9261 17.3902 65.2443 18.2386C65.5701 19.0871 66.036 19.75 66.642 20.2273C67.2557 20.697 67.9981 20.9318 68.8693 20.9318C69.7784 20.9318 70.5398 20.6894 71.1534 20.2045C71.767 19.7121 72.2292 19.0417 72.5398 18.1932C72.858 17.3371 73.017 16.3636 73.017 15.2727C73.017 14.1894 72.8617 13.2273 72.5511 12.3864C72.2405 11.5455 71.7784 10.8864 71.1648 10.4091C70.5511 9.93182 69.786 9.69318 68.8693 9.69318C67.9905 9.69318 67.2443 9.92424 66.6307 10.3864C66.017 10.8485 65.5511 11.4962 65.233 12.3295C64.9223 13.1629 64.767 14.1439 64.767 15.2727ZM88.4347 24.3409C86.6847 24.3409 85.1733 23.9773 83.9006 23.25C82.6354 22.5152 81.6619 21.4773 80.9801 20.1364C80.2983 18.7879 79.9574 17.2008 79.9574 15.375C79.9574 13.5795 80.2983 12.0038 80.9801 10.6477C81.6695 9.28409 82.6316 8.22348 83.8665 7.46591C85.1013 6.70076 86.5521 6.31818 88.2188 6.31818C89.2945 6.31818 90.3097 6.49242 91.2642 6.84091C92.2263 7.18182 93.0748 7.71212 93.8097 8.43182C94.5521 9.15151 95.1354 10.0682 95.5597 11.1818C95.9839 12.2879 96.196 13.6061 96.196 15.1364V16.3977H81.8892V13.625H92.2528C92.2453 12.8371 92.0748 12.1364 91.7415 11.5227C91.4081 10.9015 90.9422 10.4129 90.3438 10.0568C89.7528 9.70076 89.0634 9.52273 88.2756 9.52273C87.4347 9.52273 86.696 9.72727 86.0597 10.1364C85.4233 10.5379 84.9271 11.0682 84.571 11.7273C84.2225 12.3788 84.0445 13.0947 84.0369 13.875V16.2955C84.0369 17.3106 84.2225 18.1818 84.5938 18.9091C84.965 19.6288 85.4839 20.1818 86.1506 20.5682C86.8172 20.947 87.5975 21.1364 88.4915 21.1364C89.09 21.1364 89.6316 21.053 90.1165 20.8864C90.6013 20.7121 91.0218 20.4583 91.3778 20.125C91.7339 19.7917 92.0028 19.3788 92.1847 18.8864L96.0256 19.3182C95.7831 20.3333 95.321 21.2197 94.6392 21.9773C93.965 22.7273 93.1013 23.3106 92.0483 23.7273C90.9953 24.1364 89.7907 24.3409 88.4347 24.3409ZM99.6761 24V6.54545H103.665V9.45455H103.847C104.165 8.44697 104.71 7.67045 105.483 7.125C106.263 6.57197 107.153 6.29545 108.153 6.29545C108.381 6.29545 108.634 6.30682 108.915 6.32954C109.203 6.3447 109.441 6.37121 109.631 6.40909V10.1932C109.456 10.1326 109.18 10.0795 108.801 10.0341C108.43 9.98106 108.07 9.95455 107.722 9.95455C106.972 9.95455 106.297 10.1174 105.699 10.4432C105.108 10.7614 104.642 11.2045 104.301 11.7727C103.96 12.3409 103.79 12.9962 103.79 13.7386V24H99.6761ZM133.131 7.125C133.025 6.13258 132.578 5.35985 131.79 4.80682C131.009 4.25379 129.994 3.97727 128.744 3.97727C127.866 3.97727 127.112 4.10985 126.483 4.375C125.854 4.64015 125.373 5 125.04 5.45454C124.706 5.90909 124.536 6.42803 124.528 7.01136C124.528 7.49621 124.638 7.91667 124.858 8.27273C125.085 8.62879 125.392 8.93182 125.778 9.18182C126.165 9.42424 126.593 9.62879 127.062 9.79545C127.532 9.96212 128.006 10.1023 128.483 10.2159L130.665 10.7614C131.544 10.9659 132.388 11.2424 133.199 11.5909C134.017 11.9394 134.748 12.3788 135.392 12.9091C136.044 13.4394 136.559 14.0795 136.938 14.8295C137.316 15.5795 137.506 16.4583 137.506 17.4659C137.506 18.8295 137.157 20.0303 136.46 21.0682C135.763 22.0985 134.756 22.9053 133.438 23.4886C132.127 24.0644 130.54 24.3523 128.676 24.3523C126.866 24.3523 125.294 24.072 123.96 23.5114C122.634 22.9508 121.597 22.1326 120.847 21.0568C120.104 19.9811 119.703 18.6705 119.642 17.125H123.79C123.85 17.9356 124.1 18.6098 124.54 19.1477C124.979 19.6856 125.551 20.0871 126.256 20.3523C126.968 20.6174 127.763 20.75 128.642 20.75C129.559 20.75 130.362 20.6136 131.051 20.3409C131.748 20.0606 132.294 19.6742 132.688 19.1818C133.081 18.6818 133.282 18.0985 133.29 17.4318C133.282 16.8258 133.104 16.3258 132.756 15.9318C132.407 15.5303 131.919 15.197 131.29 14.9318C130.669 14.6591 129.941 14.4167 129.108 14.2045L126.46 13.5227C124.544 13.0303 123.028 12.2841 121.915 11.2841C120.809 10.2765 120.256 8.93939 120.256 7.27273C120.256 5.90151 120.627 4.70076 121.369 3.67045C122.119 2.64015 123.138 1.84091 124.426 1.27273C125.714 0.696969 127.172 0.40909 128.801 0.40909C130.453 0.40909 131.9 0.696969 133.142 1.27273C134.392 1.84091 135.373 2.63258 136.085 3.64773C136.797 4.6553 137.165 5.81439 137.188 7.125H133.131ZM149.798 6.54545V9.72727H139.764V6.54545H149.798ZM142.241 2.36364H146.355V18.75C146.355 19.303 146.438 19.7273 146.605 20.0227C146.779 20.3106 147.007 20.5076 147.287 20.6136C147.567 20.7197 147.878 20.7727 148.219 20.7727C148.476 20.7727 148.711 20.7538 148.923 20.7159C149.143 20.678 149.31 20.6439 149.423 20.6136L150.116 23.8295C149.897 23.9053 149.582 23.9886 149.173 24.0795C148.772 24.1705 148.279 24.2235 147.696 24.2386C146.666 24.2689 145.738 24.1136 144.912 23.7727C144.086 23.4242 143.431 22.8864 142.946 22.1591C142.469 21.4318 142.234 20.5227 142.241 19.4318V2.36364ZM160.665 24.3409C158.96 24.3409 157.483 23.9659 156.233 23.2159C154.983 22.4659 154.013 21.4167 153.324 20.0682C152.642 18.7197 152.301 17.1439 152.301 15.3409C152.301 13.5379 152.642 11.9583 153.324 10.6023C154.013 9.24621 154.983 8.19318 156.233 7.44318C157.483 6.69318 158.96 6.31818 160.665 6.31818C162.369 6.31818 163.847 6.69318 165.097 7.44318C166.347 8.19318 167.313 9.24621 167.994 10.6023C168.684 11.9583 169.028 13.5379 169.028 15.3409C169.028 17.1439 168.684 18.7197 167.994 20.0682C167.313 21.4167 166.347 22.4659 165.097 23.2159C163.847 23.9659 162.369 24.3409 160.665 24.3409ZM160.688 21.0455C161.612 21.0455 162.384 20.7917 163.006 20.2841C163.627 19.7689 164.089 19.0795 164.392 18.2159C164.703 17.3523 164.858 16.3902 164.858 15.3295C164.858 14.2614 164.703 13.2955 164.392 12.4318C164.089 11.5606 163.627 10.8674 163.006 10.3523C162.384 9.83712 161.612 9.57955 160.688 9.57955C159.741 9.57955 158.953 9.83712 158.324 10.3523C157.703 10.8674 157.237 11.5606 156.926 12.4318C156.623 13.2955 156.472 14.2614 156.472 15.3295C156.472 16.3902 156.623 17.3523 156.926 18.2159C157.237 19.0795 157.703 19.7689 158.324 20.2841C158.953 20.7917 159.741 21.0455 160.688 21.0455ZM172.52 30.5455V6.54545H176.565V9.43182H176.804C177.016 9.00758 177.315 8.55682 177.702 8.07955C178.088 7.5947 178.611 7.18182 179.27 6.84091C179.929 6.49242 180.77 6.31818 181.793 6.31818C183.141 6.31818 184.357 6.66288 185.44 7.35227C186.531 8.03409 187.395 9.04545 188.031 10.3864C188.675 11.7197 188.997 13.3561 188.997 15.2955C188.997 17.2121 188.683 18.8409 188.054 20.1818C187.425 21.5227 186.569 22.5455 185.486 23.25C184.402 23.9545 183.175 24.3068 181.804 24.3068C180.804 24.3068 179.974 24.1402 179.315 23.8068C178.656 23.4735 178.126 23.072 177.724 22.6023C177.33 22.125 177.024 21.6742 176.804 21.25H176.634V30.5455H172.52ZM176.554 15.2727C176.554 16.4015 176.713 17.3902 177.031 18.2386C177.357 19.0871 177.823 19.75 178.429 20.2273C179.043 20.697 179.785 20.9318 180.656 20.9318C181.565 20.9318 182.327 20.6894 182.94 20.2045C183.554 19.7121 184.016 19.0417 184.327 18.1932C184.645 17.3371 184.804 16.3636 184.804 15.2727C184.804 14.1894 184.649 13.2273 184.338 12.3864C184.027 11.5455 183.565 10.8864 182.952 10.4091C182.338 9.93182 181.573 9.69318 180.656 9.69318C179.777 9.69318 179.031 9.92424 178.418 10.3864C177.804 10.8485 177.338 11.4962 177.02 12.3295C176.709 13.1629 176.554 14.1439 176.554 15.2727ZM192.52 30.5455V6.54545H196.565V9.43182H196.804C197.016 9.00758 197.315 8.55682 197.702 8.07955C198.088 7.5947 198.611 7.18182 199.27 6.84091C199.929 6.49242 200.77 6.31818 201.793 6.31818C203.141 6.31818 204.357 6.66288 205.44 7.35227C206.531 8.03409 207.395 9.04545 208.031 10.3864C208.675 11.7197 208.997 13.3561 208.997 15.2955C208.997 17.2121 208.683 18.8409 208.054 20.1818C207.425 21.5227 206.569 22.5455 205.486 23.25C204.402 23.9545 203.175 24.3068 201.804 24.3068C200.804 24.3068 199.974 24.1402 199.315 23.8068C198.656 23.4735 198.126 23.072 197.724 22.6023C197.33 22.125 197.024 21.6742 196.804 21.25H196.634V30.5455H192.52ZM196.554 15.2727C196.554 16.4015 196.713 17.3902 197.031 18.2386C197.357 19.0871 197.823 19.75 198.429 20.2273C199.043 20.697 199.785 20.9318 200.656 20.9318C201.565 20.9318 202.327 20.6894 202.94 20.2045C203.554 19.7121 204.016 19.0417 204.327 18.1932C204.645 17.3371 204.804 16.3636 204.804 15.2727C204.804 14.1894 204.649 13.2273 204.338 12.3864C204.027 11.5455 203.565 10.8864 202.952 10.4091C202.338 9.93182 201.573 9.69318 200.656 9.69318C199.777 9.69318 199.031 9.92424 198.418 10.3864C197.804 10.8485 197.338 11.4962 197.02 12.3295C196.709 13.1629 196.554 14.1439 196.554 15.2727ZM220.247 24.3409C218.497 24.3409 216.986 23.9773 215.713 23.25C214.448 22.5152 213.474 21.4773 212.793 20.1364C212.111 18.7879 211.77 17.2008 211.77 15.375C211.77 13.5795 212.111 12.0038 212.793 10.6477C213.482 9.28409 214.444 8.22348 215.679 7.46591C216.914 6.70076 218.365 6.31818 220.031 6.31818C221.107 6.31818 222.122 6.49242 223.077 6.84091C224.039 7.18182 224.887 7.71212 225.622 8.43182C226.365 9.15151 226.948 10.0682 227.372 11.1818C227.796 12.2879 228.009 13.6061 228.009 15.1364V16.3977H213.702V13.625H224.065C224.058 12.8371 223.887 12.1364 223.554 11.5227C223.221 10.9015 222.755 10.4129 222.156 10.0568C221.565 9.70076 220.876 9.52273 220.088 9.52273C219.247 9.52273 218.509 9.72727 217.872 10.1364C217.236 10.5379 216.74 11.0682 216.384 11.7273C216.035 12.3788 215.857 13.0947 215.849 13.875V16.2955C215.849 17.3106 216.035 18.1818 216.406 18.9091C216.777 19.6288 217.296 20.1818 217.963 20.5682C218.63 20.947 219.41 21.1364 220.304 21.1364C220.902 21.1364 221.444 21.053 221.929 20.8864C222.414 20.7121 222.834 20.4583 223.19 20.125C223.546 19.7917 223.815 19.3788 223.997 18.8864L227.838 19.3182C227.596 20.3333 227.134 21.2197 226.452 21.9773C225.777 22.7273 224.914 23.3106 223.861 23.7273C222.808 24.1364 221.603 24.3409 220.247 24.3409ZM231.489 24V6.54545H235.477V9.45455H235.659C235.977 8.44697 236.523 7.67045 237.295 7.125C238.076 6.57197 238.966 6.29545 239.966 6.29545C240.193 6.29545 240.447 6.30682 240.727 6.32954C241.015 6.3447 241.254 6.37121 241.443 6.40909V10.1932C241.269 10.1326 240.992 10.0795 240.614 10.0341C240.242 9.98106 239.883 9.95455 239.534 9.95455C238.784 9.95455 238.11 10.1174 237.511 10.4432C236.92 10.7614 236.455 11.2045 236.114 11.7727C235.773 12.3409 235.602 12.9962 235.602 13.7386V24H231.489Z" fill="#5D0096"/>
<path d="M1.13636 57.3636C1.13636 54.5227 1.51136 51.9129 2.26136 49.5341C3.01894 47.1477 4.14394 44.9432 5.63636 42.9205H9.51136C8.93561 43.6705 8.39773 44.5909 7.89773 45.6818C7.39773 46.7652 6.96212 47.9545 6.59091 49.25C6.22727 50.5379 5.93939 51.875 5.72727 53.2614C5.52273 54.6477 5.42045 56.0152 5.42045 57.3636C5.42045 59.1591 5.59849 60.9773 5.95455 62.8182C6.31818 64.6591 6.80682 66.3674 7.42045 67.9432C8.04167 69.5114 8.73864 70.7955 9.51136 71.7955H5.63636C4.14394 69.7727 3.01894 67.572 2.26136 65.1932C1.51136 62.8068 1.13636 60.197 1.13636 57.3636ZM27.5597 45.7273H31.7756V60.9318C31.7756 62.5985 31.3816 64.0644 30.5938 65.3295C29.8134 66.5947 28.715 67.5833 27.2983 68.2955C25.8816 69 24.2263 69.3523 22.3324 69.3523C20.4309 69.3523 18.7718 69 17.3551 68.2955C15.9384 67.5833 14.84 66.5947 14.0597 65.3295C13.2794 64.0644 12.8892 62.5985 12.8892 60.9318V45.7273H17.1051V60.5795C17.1051 61.5492 17.3172 62.4129 17.7415 63.1705C18.1733 63.928 18.7794 64.5227 19.5597 64.9545C20.34 65.3788 21.2642 65.5909 22.3324 65.5909C23.4006 65.5909 24.3248 65.3788 25.1051 64.9545C25.893 64.5227 26.4991 63.928 26.9233 63.1705C27.3475 62.4129 27.5597 61.5492 27.5597 60.5795V45.7273ZM40.2898 58.7727V69H36.1761V51.5455H40.108V54.5114H40.3125C40.714 53.5341 41.3542 52.7576 42.233 52.1818C43.1193 51.6061 44.214 51.3182 45.517 51.3182C46.7216 51.3182 47.7708 51.5758 48.6648 52.0909C49.5663 52.6061 50.2633 53.3523 50.7557 54.3295C51.2557 55.3068 51.5019 56.4924 51.4943 57.8864V69H47.3807V58.5227C47.3807 57.3561 47.0777 56.4432 46.4716 55.7841C45.8731 55.125 45.0436 54.7955 43.983 54.7955C43.2633 54.7955 42.6231 54.9545 42.0625 55.2727C41.5095 55.5833 41.0739 56.0341 40.7557 56.625C40.4451 57.2159 40.2898 57.9318 40.2898 58.7727ZM62.1534 69.3068C60.7822 69.3068 59.5549 68.9545 58.4716 68.25C57.3883 67.5455 56.5322 66.5227 55.9034 65.1818C55.2746 63.8409 54.9602 62.2121 54.9602 60.2955C54.9602 58.3561 55.2784 56.7197 55.9148 55.3864C56.5587 54.0455 57.4261 53.0341 58.517 52.3523C59.608 51.6629 60.8239 51.3182 62.1648 51.3182C63.1875 51.3182 64.0284 51.4924 64.6875 51.8409C65.3466 52.1818 65.8693 52.5947 66.2557 53.0795C66.642 53.5568 66.9413 54.0076 67.1534 54.4318H67.3239V45.7273H71.4489V69H67.4034V66.25H67.1534C66.9413 66.6742 66.6345 67.125 66.233 67.6023C65.8314 68.072 65.3011 68.4735 64.642 68.8068C63.983 69.1402 63.1534 69.3068 62.1534 69.3068ZM63.3011 65.9318C64.1723 65.9318 64.9148 65.697 65.5284 65.2273C66.142 64.75 66.608 64.0871 66.9261 63.2386C67.2443 62.3902 67.4034 61.4015 67.4034 60.2727C67.4034 59.1439 67.2443 58.1629 66.9261 57.3295C66.6155 56.4962 66.1534 55.8485 65.5398 55.3864C64.9337 54.9242 64.1875 54.6932 63.3011 54.6932C62.3845 54.6932 61.6193 54.9318 61.0057 55.4091C60.392 55.8864 59.9299 56.5455 59.6193 57.3864C59.3087 58.2273 59.1534 59.1894 59.1534 60.2727C59.1534 61.3636 59.3087 62.3371 59.6193 63.1932C59.9375 64.0417 60.4034 64.7121 61.017 65.2045C61.6383 65.6894 62.3996 65.9318 63.3011 65.9318ZM83.5597 69.3409C81.8097 69.3409 80.2983 68.9773 79.0256 68.25C77.7604 67.5152 76.7869 66.4773 76.1051 65.1364C75.4233 63.7879 75.0824 62.2008 75.0824 60.375C75.0824 58.5795 75.4233 57.0038 76.1051 55.6477C76.7945 54.2841 77.7566 53.2235 78.9915 52.4659C80.2263 51.7008 81.6771 51.3182 83.3438 51.3182C84.4195 51.3182 85.4347 51.4924 86.3892 51.8409C87.3513 52.1818 88.1998 52.7121 88.9347 53.4318C89.6771 54.1515 90.2604 55.0682 90.6847 56.1818C91.1089 57.2879 91.321 58.6061 91.321 60.1364V61.3977H77.0142V58.625H87.3778C87.3703 57.8371 87.1998 57.1364 86.8665 56.5227C86.5331 55.9015 86.0672 55.4129 85.4688 55.0568C84.8778 54.7008 84.1884 54.5227 83.4006 54.5227C82.5597 54.5227 81.821 54.7273 81.1847 55.1364C80.5483 55.5379 80.0521 56.0682 79.696 56.7273C79.3475 57.3788 79.1695 58.0947 79.1619 58.875V61.2955C79.1619 62.3106 79.3475 63.1818 79.7188 63.9091C80.09 64.6288 80.6089 65.1818 81.2756 65.5682C81.9422 65.947 82.7225 66.1364 83.6165 66.1364C84.215 66.1364 84.7566 66.053 85.2415 65.8864C85.7263 65.7121 86.1468 65.4583 86.5028 65.125C86.8589 64.7917 87.1278 64.3788 87.3097 63.8864L91.1506 64.3182C90.9081 65.3333 90.446 66.2197 89.7642 66.9773C89.09 67.7273 88.2263 68.3106 87.1733 68.7273C86.1203 69.1364 84.9157 69.3409 83.5597 69.3409ZM94.8011 69V51.5455H98.7898V54.4545H98.9716C99.2898 53.447 99.8352 52.6705 100.608 52.125C101.388 51.572 102.278 51.2955 103.278 51.2955C103.506 51.2955 103.759 51.3068 104.04 51.3295C104.328 51.3447 104.566 51.3712 104.756 51.4091V55.1932C104.581 55.1326 104.305 55.0795 103.926 55.0341C103.555 54.9811 103.195 54.9545 102.847 54.9545C102.097 54.9545 101.422 55.1174 100.824 55.4432C100.233 55.7614 99.767 56.2045 99.4261 56.7727C99.0852 57.3409 98.9148 57.9962 98.9148 58.7386V69H94.8011ZM135.528 53.5795H131.278C131.157 52.8826 130.934 52.2652 130.608 51.7273C130.282 51.1818 129.877 50.7197 129.392 50.3409C128.907 49.9621 128.354 49.678 127.733 49.4886C127.119 49.2917 126.456 49.1932 125.744 49.1932C124.479 49.1932 123.358 49.5114 122.381 50.1477C121.403 50.7765 120.638 51.7008 120.085 52.9205C119.532 54.1326 119.256 55.6136 119.256 57.3636C119.256 59.1439 119.532 60.6439 120.085 61.8636C120.646 63.0758 121.411 63.9924 122.381 64.6136C123.358 65.2273 124.475 65.5341 125.733 65.5341C126.43 65.5341 127.081 65.4432 127.688 65.2614C128.301 65.072 128.85 64.7955 129.335 64.4318C129.828 64.0682 130.241 63.6212 130.574 63.0909C130.915 62.5606 131.15 61.9545 131.278 61.2727L135.528 61.2955C135.369 62.4015 135.025 63.4394 134.494 64.4091C133.972 65.3788 133.286 66.2348 132.438 66.9773C131.589 67.7121 130.597 68.2879 129.46 68.7045C128.324 69.1136 127.063 69.3182 125.676 69.3182C123.631 69.3182 121.805 68.8447 120.199 67.8977C118.593 66.9508 117.328 65.5833 116.403 63.7955C115.479 62.0076 115.017 59.8636 115.017 57.3636C115.017 54.8561 115.483 52.7121 116.415 50.9318C117.347 49.1439 118.616 47.7765 120.222 46.8295C121.828 45.8826 123.646 45.4091 125.676 45.4091C126.972 45.4091 128.176 45.5909 129.29 45.9545C130.403 46.3182 131.396 46.8523 132.267 47.5568C133.138 48.2538 133.854 49.1098 134.415 50.125C134.983 51.1326 135.354 52.2841 135.528 53.5795ZM144.23 69.3523C143.124 69.3523 142.128 69.1553 141.241 68.7614C140.363 68.3598 139.666 67.7689 139.151 66.9886C138.643 66.2083 138.389 65.2462 138.389 64.1023C138.389 63.1174 138.571 62.303 138.935 61.6591C139.298 61.0152 139.795 60.5 140.423 60.1136C141.052 59.7273 141.76 59.4356 142.548 59.2386C143.344 59.0341 144.166 58.8864 145.014 58.7955C146.037 58.6894 146.866 58.5947 147.503 58.5114C148.139 58.4205 148.601 58.2841 148.889 58.1023C149.185 57.9129 149.332 57.6212 149.332 57.2273V57.1591C149.332 56.303 149.079 55.6402 148.571 55.1705C148.063 54.7008 147.332 54.4659 146.378 54.4659C145.37 54.4659 144.571 54.6856 143.98 55.125C143.397 55.5644 143.003 56.0833 142.798 56.6818L138.957 56.1364C139.26 55.0758 139.76 54.1894 140.457 53.4773C141.154 52.7576 142.007 52.2197 143.014 51.8636C144.022 51.5 145.135 51.3182 146.355 51.3182C147.196 51.3182 148.033 51.4167 148.866 51.6136C149.7 51.8106 150.461 52.1364 151.151 52.5909C151.84 53.0379 152.393 53.6477 152.81 54.4205C153.234 55.1932 153.446 56.1591 153.446 57.3182V69H149.491V66.6023H149.355C149.105 67.0871 148.753 67.5417 148.298 67.9659C147.851 68.3826 147.287 68.7197 146.605 68.9773C145.931 69.2273 145.139 69.3523 144.23 69.3523ZM145.298 66.3295C146.124 66.3295 146.84 66.1667 147.446 65.8409C148.052 65.5076 148.518 65.0682 148.844 64.5227C149.177 63.9773 149.344 63.3826 149.344 62.7386V60.6818C149.215 60.7879 148.995 60.8864 148.685 60.9773C148.382 61.0682 148.041 61.1477 147.662 61.2159C147.283 61.2841 146.908 61.3447 146.537 61.3977C146.166 61.4508 145.844 61.4962 145.571 61.5341C144.957 61.6174 144.408 61.7538 143.923 61.9432C143.438 62.1326 143.056 62.3977 142.776 62.7386C142.495 63.072 142.355 63.5038 142.355 64.0341C142.355 64.7917 142.632 65.3636 143.185 65.75C143.738 66.1364 144.442 66.3295 145.298 66.3295ZM157.582 75.5455V51.5455H161.628V54.4318H161.866C162.079 54.0076 162.378 53.5568 162.764 53.0795C163.151 52.5947 163.673 52.1818 164.332 51.8409C164.991 51.4924 165.832 51.3182 166.855 51.3182C168.204 51.3182 169.42 51.6629 170.503 52.3523C171.594 53.0341 172.457 54.0455 173.094 55.3864C173.738 56.7197 174.06 58.3561 174.06 60.2955C174.06 62.2121 173.745 63.8409 173.116 65.1818C172.488 66.5227 171.632 67.5455 170.548 68.25C169.465 68.9545 168.238 69.3068 166.866 69.3068C165.866 69.3068 165.037 69.1402 164.378 68.8068C163.719 68.4735 163.188 68.072 162.787 67.6023C162.393 67.125 162.086 66.6742 161.866 66.25H161.696V75.5455H157.582ZM161.616 60.2727C161.616 61.4015 161.776 62.3902 162.094 63.2386C162.42 64.0871 162.885 64.75 163.491 65.2273C164.105 65.697 164.848 65.9318 165.719 65.9318C166.628 65.9318 167.389 65.6894 168.003 65.2045C168.616 64.7121 169.079 64.0417 169.389 63.1932C169.707 62.3371 169.866 61.3636 169.866 60.2727C169.866 59.1894 169.711 58.2273 169.401 57.3864C169.09 56.5455 168.628 55.8864 168.014 55.4091C167.401 54.9318 166.635 54.6932 165.719 54.6932C164.84 54.6932 164.094 54.9242 163.48 55.3864C162.866 55.8485 162.401 56.4962 162.082 57.3295C161.772 58.1629 161.616 59.1439 161.616 60.2727ZM184.517 59.5114C184.517 62.3447 184.138 64.9545 183.381 67.3409C182.631 69.7197 181.509 71.9205 180.017 73.9432H176.142C176.725 73.1932 177.263 72.2765 177.756 71.1932C178.256 70.1098 178.688 68.9205 179.051 67.625C179.422 66.3295 179.71 64.9886 179.915 63.6023C180.127 62.2159 180.233 60.8523 180.233 59.5114C180.233 57.7159 180.051 55.8977 179.688 54.0568C179.331 52.2159 178.843 50.5076 178.222 48.9318C177.608 47.3561 176.915 46.0682 176.142 45.0682H180.017C181.509 47.0909 182.631 49.2955 183.381 51.6818C184.138 54.0606 184.517 56.6705 184.517 59.5114Z" fill="#111827"/>
</svg>
