<svg width="185" height="100" viewBox="0 0 185 100" fill="none" xmlns="http://www.w3.org/2000/svg">
<path d="M135 1.17985e-06C162.614 5.28236e-07 185 22.3858 185 50C185 77.6142 162.614 100 135 100L50 100C22.3858 100 1.83146e-06 77.6142 1.17985e-06 50C5.28236e-07 22.3858 22.3858 3.8372e-06 50 3.18559e-06L135 1.17985e-06Z" fill="white"/>
<rect x="43" y="32.6562" width="13.2632" height="34.9526" rx="6.63158" fill="#FF854B"/>
<rect x="64.2637" y="27.834" width="13.2632" height="44.5947" rx="6.63158" fill="#FF854B"/>
<rect x="85.5273" y="20" width="13.2632" height="60.2632" rx="6.63158" fill="#FF854B"/>
<rect x="106.789" y="27.834" width="13.2632" height="44.5947" rx="6.63158" fill="#FF854B"/>
<rect x="128.053" y="32.6562" width="13.2632" height="34.9526" rx="6.63158" fill="#FF854B"/>
</svg>
