<svg width="24" height="24" viewBox="0 0 24 24" fill="none" xmlns="http://www.w3.org/2000/svg">
<path fill-rule="evenodd" clip-rule="evenodd" d="M12 21C16.9705 21 21 16.9705 21 12C21 7.0295 16.9705 3 12 3C7.0295 3 3 7.0295 3 12C3 16.9705 7.0295 21 12 21ZM12 22C17.523 22 22 17.523 22 12C22 6.477 17.523 2 12 2C6.477 2 2 6.477 2 12C2 17.523 6.477 22 12 22Z" fill="#22C55E"/>
<path fill-rule="evenodd" clip-rule="evenodd" d="M17.3343 8.1295C17.4327 8.21836 17.4918 8.34265 17.4985 8.47504C17.5053 8.60743 17.4592 8.73709 17.3703 8.8355L10.6923 16.216L6.65434 12.3615C6.56367 12.2688 6.51254 12.1446 6.51173 12.0149C6.51092 11.8853 6.5605 11.7604 6.65001 11.6666C6.73951 11.5728 6.86195 11.5175 6.99149 11.5122C7.12103 11.507 7.24754 11.5523 7.34434 11.6385L10.6393 14.7835L16.6288 8.165C16.6729 8.11629 16.7262 8.07674 16.7855 8.04862C16.8449 8.0205 16.9092 8.00435 16.9748 8.0011C17.0405 7.99785 17.1061 8.00756 17.1679 8.02968C17.2298 8.05179 17.2867 8.08588 17.3353 8.13" fill="#22C55E"/>
</svg>
