<svg width="638" height="638" viewBox="0 0 638 638" fill="none" xmlns="http://www.w3.org/2000/svg">
<path opacity="0.49" fill-rule="evenodd" clip-rule="evenodd" d="M35 319C35 162.151 162.151 35 319 35C475.849 35 603 162.151 603 319C603 475.849 475.849 603 319 603C162.151 603 35 475.849 35 319ZM0 319C0 142.821 142.821 0 319 0C495.179 0 638 142.821 638 319C638 495.179 495.179 638 319 638C142.821 638 0 495.179 0 319ZM319.001 83.8755C189.145 83.8755 83.8763 189.144 83.8763 319C83.8763 448.856 189.145 554.124 319.001 554.124C448.856 554.124 554.125 448.856 554.125 319C554.125 189.144 448.856 83.8755 319.001 83.8755ZM319.001 48.8755C169.815 48.8755 48.8763 169.814 48.8763 319C48.8763 468.186 169.815 589.124 319.001 589.124C468.186 589.124 589.125 468.186 589.125 319C589.125 169.814 468.186 48.8755 319.001 48.8755ZM132.751 319C132.751 216.137 216.137 132.751 319 132.751C421.862 132.751 505.249 216.137 505.249 319C505.249 421.862 421.862 505.249 319 505.249C216.137 505.249 132.751 421.862 132.751 319ZM97.7509 319C97.7509 196.807 196.807 97.7509 319 97.7509C441.192 97.7509 540.249 196.807 540.249 319C540.249 441.192 441.192 540.249 319 540.249C196.807 540.249 97.7509 441.192 97.7509 319ZM181.627 319C181.627 243.131 243.131 181.626 319.001 181.626C394.87 181.626 456.374 243.131 456.374 319C456.374 394.869 394.87 456.373 319.001 456.373C243.131 456.373 181.627 394.869 181.627 319ZM146.627 319C146.627 223.801 223.801 146.626 319.001 146.626C414.2 146.626 491.374 223.801 491.374 319C491.374 414.199 414.2 491.373 319.001 491.373C223.801 491.373 146.627 414.199 146.627 319ZM319 230.502C270.124 230.502 230.502 270.124 230.502 319C230.502 367.876 270.124 407.498 319 407.498C367.876 407.498 407.498 367.876 407.498 319C407.498 270.124 367.876 230.502 319 230.502ZM319 195.502C250.794 195.502 195.502 250.794 195.502 319C195.502 387.206 250.794 442.498 319 442.498C387.206 442.498 442.498 387.206 442.498 319C442.498 250.794 387.206 195.502 319 195.502ZM279.378 319C279.378 297.117 297.118 279.377 319.001 279.377C340.884 279.377 358.623 297.117 358.623 319C358.623 340.883 340.884 358.622 319.001 358.622C297.118 358.622 279.378 340.883 279.378 319ZM244.378 319C244.378 277.787 277.788 244.377 319.001 244.377C360.213 244.377 393.623 277.787 393.623 319C393.623 360.213 360.213 393.622 319.001 393.622C277.788 393.622 244.378 360.213 244.378 319Z" fill="url(#paint0_linear_177_2673)"/>
<defs>
<linearGradient id="paint0_linear_177_2673" x1="319" y1="638" x2="319" y2="0" gradientUnits="userSpaceOnUse">
<stop stop-color="#F1EBF7" stop-opacity="0.7"/>
<stop offset="1" stop-color="#F1EBF7"/>
</linearGradient>
</defs>
</svg>
