<svg width="141" height="100" viewBox="0 0 141 100" fill="none" xmlns="http://www.w3.org/2000/svg">
<path d="M117 5.66327e-07C130.255 2.53553e-07 141 10.7452 141 24L141 76C141 89.2548 130.255 100 117 100L24 100C10.7452 100 2.10614e-06 89.2548 1.79337e-06 76L5.66327e-07 24C2.53553e-07 10.7452 10.7452 3.07362e-06 24 2.76085e-06L117 5.66327e-07Z" fill="white"/>
<path d="M96.7785 41.8387C98.2346 42.5972 99.4526 43.7296 100.302 45.1144C101.151 46.4993 101.6 48.0844 101.6 49.7C101.6 51.3156 101.151 52.9008 100.302 54.2856C99.4526 55.6705 98.2346 56.8028 96.7785 57.5614L57.9366 78.2528C51.6823 81.588 44 77.2519 44 70.3944V29.0087C44 22.1482 51.6823 17.8151 57.9366 21.1443L96.7785 41.8387Z" fill="#5D0096"/>
</svg>
